# xmcd
#
# Track frame offsets:
#	150
#	16298
#	34657
#	54962
#	72082
#	90319
#	109610
#	127803
#	146339
#	159860
#	174855
#	195374
#	208158
#	225241
#	243811
#	257101
#	265300
#	281187
#
# Disc length: 3913 seconds
#
# Revision: 0
# Processed by: cddbd v1.4PL0 Copyright (c) Steve Scherf et al.
# Submitted via: audiograbber 1.82.02
#
DISCID=de0f4712
DTITLE=Various Artist - It`s Our Backyard  Vol 20
DYEAR=1900
DGENRE=Country
TTITLE0=John Williamson - Thargomindah
TTITLE1=Sara Storer - Katherine
TTITLE2=Graeme Connors - Road Less Travelled
TTITLE3=Travis Sinclair - Still Riding That Line
TTITLE4=Naked Poets Marco Gliori - The Mr Whippy Ripoff
TTITLE5=Arthur Blanch - The Outback's Come to Town
TTITLE6=CMAA College Graduates Concert - No Ordinary Angels
TTITLE7=Hillbilly Lovechild - Carrie Brown
TTITLE8=Nathan Charlton - Tex, Buddy and Slim
TTITLE9=Greg Champion - Shady Tree
TTITLE10=Chalkie White - She
TTITLE11=Adam Kilpatrick - Addicted
TTITLE12=Keiran Lancini - A Matter of Time
TTITLE13=Grant Millar - This is The Year
TTITLE14=Sensitive New Age Cowpersons - I Still Haven't Found What I'm Looking 
TTITLE14=For
TTITLE15=Pixie Jenkins - The Flight of the Blowfly
TTITLE16=Catherine Britt - 46 Miles to Alice
TTITLE17=Troy Cassar Daley - Think About You
EXTD=
EXTT0=
EXTT1=
EXTT2=
EXTT3=
EXTT4=
EXTT5=
EXTT6=
EXTT7=
EXTT8=
EXTT9=
EXTT10=
EXTT11=
EXTT12=
EXTT13=
EXTT14=
EXTT15=
EXTT16=
EXTT17=
PLAYORDER=
